<svg width="98" height="107" viewBox="0 0 98 107" fill="none" xmlns="http://www.w3.org/2000/svg">
<rect width="98" height="107" fill="white"/>
<rect x="-5045" y="-3043" width="9523" height="7370" fill="#454545"/>
<path d="M-1058 -1038C-1058 -1039.1 -1057.1 -1040 -1056 -1040H872C873.104 -1040 874 -1039.1 874 -1038V297C874 298.105 873.105 299 872 299H-1056C-1057.1 299 -1058 298.105 -1058 297V-1038Z" fill="#454545"/>
<path d="M-1056 -1040V-1039H872V-1040V-1041H-1056V-1040ZM874 -1038H873V297H874H875V-1038H874ZM872 299V298H-1056V299V300H872V299ZM-1058 297H-1057V-1038H-1058H-1059V297H-1058ZM-1056 299V298C-1056.55 298 -1057 297.552 -1057 297H-1058H-1059C-1059 298.657 -1057.66 300 -1056 300V299ZM874 297H873C873 297.552 872.552 298 872 298V299V300C873.657 300 875 298.657 875 297H874ZM872 -1040V-1039C872.552 -1039 873 -1038.55 873 -1038H874H875C875 -1039.66 873.657 -1041 872 -1041V-1040ZM-1056 -1040V-1041C-1057.66 -1041 -1059 -1039.66 -1059 -1038H-1058H-1057C-1057 -1038.55 -1056.55 -1039 -1056 -1039V-1040Z" fill="black" fill-opacity="0.1"/>
<g clip-path="url(#clip0_0_1)">
<rect y="-745" width="393" height="852" rx="30" fill="#FFFAF5"/>
<path d="M-0.999854 106.996L97.9966 107.836C97.9966 107.836 93.9678 96.479 80.458 91.2689C66.9481 86.0588 55.2301 78.0331 51.733 73.4742C48.2358 68.9153 43.9513 62.6207 40.1687 47.3328C36.3861 32.0449 34.1325 28.3651 27.4451 18.9169C22.2041 11.5124 19.7508 6.63433 11.6695 2.93061C7.38634 0.967648 -0.0918136 6.44568e-06 -0.0918136 6.44568e-06L-0.999854 106.996Z" fill="#39C13A"/>
</g>
<defs>
<clipPath id="clip0_0_1">
<rect y="-745" width="393" height="852" rx="30" fill="white"/>
</clipPath>
</defs>
</svg>
