<svg width="96" height="90" viewBox="0 0 96 90" fill="none" xmlns="http://www.w3.org/2000/svg">
<rect width="96" height="90" fill="white"/>
<rect x="-5342" y="-2298" width="9523" height="7370" fill="#454545"/>
<path d="M-1355 -293C-1355 -294.105 -1354.1 -295 -1353 -295H575C576.104 -295 577 -294.105 577 -293V1042C577 1043.1 576.105 1044 575 1044H-1353C-1354.1 1044 -1355 1043.1 -1355 1042V-293Z" fill="#454545"/>
<path d="M-1353 -295V-294H575V-295V-296H-1353V-295ZM577 -293H576V1042H577H578V-293H577ZM575 1044V1043H-1353V1044V1045H575V1044ZM-1355 1042H-1354V-293H-1355H-1356V1042H-1355ZM-1353 1044V1043C-1353.55 1043 -1354 1042.55 -1354 1042H-1355H-1356C-1356 1043.66 -1354.66 1045 -1353 1045V1044ZM577 1042H576C576 1042.55 575.552 1043 575 1043V1044V1045C576.657 1045 578 1043.66 578 1042H577ZM575 -295V-294C575.552 -294 576 -293.552 576 -293H577H578C578 -294.657 576.657 -296 575 -296V-295ZM-1353 -295V-296C-1354.66 -296 -1356 -294.657 -1356 -293H-1355H-1354C-1354 -293.552 -1353.55 -294 -1353 -294V-295Z" fill="black" fill-opacity="0.1"/>
<g clip-path="url(#clip0_0_1)">
<rect x="-297" width="393" height="852" rx="30" fill="#FFFAF5"/>
<path d="M99.1176 1.00002L99.7605 84.8552C99.7605 84.8552 89.6684 81.4384 85.0509 69.9929C80.4335 58.5475 73.3112 48.6188 69.2621 45.6548C65.213 42.6908 59.6218 39.0593 46.0353 35.8495C32.4488 32.6398 29.1799 30.7296 20.7877 25.0614C14.2108 20.6194 9.87692 18.5395 6.59291 11.6928C4.85238 8.06403 4.00003 1.7293 4.00003 1.7293L99.1176 1.00002Z" fill="#642CC7" stroke="#642CC7" stroke-width="6"/>
</g>
<defs>
<clipPath id="clip0_0_1">
<rect x="-297" width="393" height="852" rx="30" fill="white"/>
</clipPath>
</defs>
</svg>
